<svg height="472pt" viewBox="-10 0 472 472" width="472pt" xmlns="http://www.w3.org/2000/svg"><path d="m152.011719 352v48l-72 72h256l-56-56v-48l24-40v-48h-152zm0 0" fill="#c3c3c3"/><path d="m127.585938 175.847656c-.050782-4.371094-3.625-7.878906-8-7.847656l-.070313-.070312c-4.417969.039062-7.96875 3.652343-7.929687 8.070312l.351562 56h-47.925781c-.683594.046875-1.355469.179688-2 .398438-3.480469-6.445313-10.894531-9.707032-18-7.910157-7.101563 1.792969-12.082031 8.183594-12.082031 15.511719s4.980468 13.71875 12.082031 15.511719c7.105469 1.796875 14.519531-1.464844 18-7.910157.644531.21875 1.316406.351563 2 .398438h56c2.132812 0 4.179687-.851562 5.683593-2.367188 1.5-1.515624 2.335938-3.570312 2.316407-5.703124zm0 0" fill="#85bc94"/><path d="m120.011719 88h-64v-32c-.046875-.679688-.179688-1.351562-.402344-2 6.449219-3.480469 9.710937-10.894531 7.914063-18-1.792969-7.101562-8.183594-12.078125-15.511719-12.078125s-13.71875 4.976563-15.511719 12.078125c-1.796875 7.105469 1.464844 14.519531 7.910156 18-.21875.648438-.351562 1.320312-.398437 2v40c0 4.417969 3.582031 8 8 8h72c4.417969 0 8-3.582031 8-8s-3.582031-8-8-8zm0 0" fill="#85bc94"/><path d="m132.21875 134.574219h-.121094l-92.214844 1.425781c-.621093.054688-1.230468.191406-1.816406.398438-3.480468-6.445313-10.894531-9.707032-18-7.910157-7.101562 1.792969-12.078125 8.183594-12.078125 15.511719s4.976563 13.71875 12.078125 15.511719c7.105469 1.796875 14.519532-1.464844 18-7.910157.628906.214844 1.28125.351563 1.945313.398438h.128906l92.207031-1.425781c4.417969-.035157 7.972656-3.644531 7.933594-8.0625-.035156-4.417969-3.644531-7.972657-8.0625-7.9375zm0 0" fill="#85bc94"/><path d="m48.011719 264c-13.253907 0-24-10.746094-24-24s10.746093-24 24-24c13.253906 0 24 10.746094 24 24s-10.746094 24-24 24zm0-32c-4.417969 0-8 3.582031-8 8s3.582031 8 8 8 8-3.582031 8-8-3.582031-8-8-8zm0 0" fill="#6b9777"/><path d="m48.011719 64c-13.253907 0-24-10.746094-24-24s10.746093-24 24-24c13.253906 0 24 10.746094 24 24s-10.746094 24-24 24zm0-32c-4.417969 0-8 3.582031-8 8s3.582031 8 8 8 8-3.582031 8-8-3.582031-8-8-8zm0 0" fill="#6b9777"/><path d="m24.011719 168c-12.53125.003906-22.957031-9.628906-23.9375002-22.121094-.9804688-12.492187 7.8125002-23.636718 20.1875002-25.585937 12.378906-1.949219 24.175781 5.949219 27.082031 18.136719 2.910156 12.1875-4.046875 24.5625-15.972656 28.410156-2.378906.765625-4.859375 1.160156-7.359375 1.160156zm0-32c-.816407.007812-1.625.136719-2.402344.382812-4.203125 1.351563-6.519531 5.859376-5.167969 10.066407 1.355469 4.203125 5.859375 6.519531 10.066406 5.167969 3.757813-1.210938 6.074219-4.980469 5.449219-8.878907-.621093-3.902343-3.996093-6.761719-7.945312-6.738281zm0 0" fill="#6b9777"/><g fill="#85bc94"><path d="m318.011719 192h-60c-4.953125.488281-9.390625-3.0625-10-8 .609375-4.9375 5.046875-8.488281 10-8h60c4.953125-.488281 9.390625 3.0625 10 8-.609375 4.9375-5.046875 8.488281-10 8zm0 0"/><path d="m304.011719 144h-64c-4.417969 0-8-3.582031-8-8s3.582031-8 8-8h64c4.417969 0 8 3.582031 8 8s-3.582031 8-8 8zm0 0"/><path d="m304.011719 96h-48c-4.417969 0-8-3.582031-8-8s3.582031-8 8-8h48c4.417969 0 8 3.582031 8 8s-3.582031 8-8 8zm0 0"/><path d="m344.011719 40h-72c-4.417969 0-8-3.582031-8-8v-16h-64v32c0 4.417969-3.582031 8-8 8s-8-3.582031-8-8v-40c0-4.417969 3.582031-8 8-8h80c4.417969 0 8 3.582031 8 8v16h64zm0 0"/><path d="m224.011719 224h16v16h-16zm0 0"/><path d="m256.011719 224h16v16h-16zm0 0"/><path d="m288.011719 224h48v16h-48zm0 0"/><path d="m184.011719 296c-4.417969 0-8-3.582031-8-8v-72c0-4.417969 3.582031-8 8-8s8 3.582031 8 8v72c0 4.417969-3.582031 8-8 8zm0 0"/></g><path d="m243.804688 136c-.011719-2.199219-.15625-4.394531-.425782-6.574219l28.632813-23.570312-16-27.710938-34.761719 13.054688c-3.507812-2.652344-7.320312-4.875-11.359375-6.625l-6.085937-36.574219h-32l-6.097657 36.542969c-4.035156 1.75-7.847656 3.976562-11.359375 6.625l-34.761718-13.023438-16 27.710938 28.632812 23.570312c-.554688 4.363281-.554688 8.785157 0 13.148438l-28.632812 23.570312 16 27.710938 34.761718-13.054688c3.511719 2.648438 7.324219 4.875 11.359375 6.625l2.097657 12.574219 4 24h32l6.085937-36.542969c4.039063-1.75 7.851563-3.972656 11.359375-6.625l34.761719 13.023438 16-27.710938-28.632813-23.570312c.269532-2.179688.414063-4.375.425782-6.574219zm-56 24c-13.257813 0-24-10.746094-24-24s10.742187-24 24-24c13.253906 0 24 10.746094 24 24s-10.746094 24-24 24zm0 0" fill="#5e8569"/><path d="m216.011719 280v128l-56 64h-80l72-72v-120zm0 0" fill="#a8a8a8"/><path d="m280.011719 384h-64v-104h88v48l-24 40zm0 0" fill="#dbdbdb"/><path d="m248.011719 384v88h88l-56-56v-32zm0 0" fill="#dbdbdb"/><path d="m248.011719 280v56l32 32 40-56v-32zm0 0" fill="#d1d1d1"/><path d="m176.011719 320h16v16h-16zm0 0" fill="#b9b9b9"/><path d="m176.011719 352h16v16h-16zm0 0" fill="#b9b9b9"/><path d="m176.011719 453.710938 16-18.277344v-51.433594h-16zm0 0" fill="#b9b9b9"/><path d="m295.828125 345.863281 24.183594-33.863281v-32h-48v48zm0 0" fill="#cdcdcd"/><path d="m344.011719 24-40 56v96l24 32v32l-40 16v64s64 40 72 40h48v-48l16-16v-32h19.6875c2.707031 0 5.230469-1.371094 6.707031-3.640625s1.703125-5.132813.605469-7.605469l-27-60.753906c10.246093-10.242188 16-24.136719 16-38.625-.003907-49.875-28.1875-95.46875-72.800781-117.765625zm0 0" fill="#ebebeb"/><path d="m400.011719 200h-24c-4.417969 0-8-3.582031-8-8s3.582031-8 8-8h16v-16c0-4.417969 3.582031-8 8-8s8 3.582031 8 8v24c0 4.417969-3.582031 8-8 8zm0 0" fill="#dbdbdb"/><path d="m381.667969 274.34375c-3.140625-3.03125-8.128907-2.988281-11.214844.097656-3.085937 3.085938-3.128906 8.074219-.097656 11.214844 11.714843 11.785156 27.660156 18.390625 44.28125 18.34375h1.375l8-8v-8h-9.375c-12.375.035156-24.246094-4.882812-32.96875-13.65625zm0 0" fill="#dbdbdb"/><path d="m328.011719 80h16v32h-16zm0 0" fill="#f9f9f9"/><path d="m328.011719 128h16v16h-16zm0 0" fill="#f9f9f9"/><path d="m328.011719 160h16v16h-16zm0 0" fill="#f9f9f9"/></svg>